<svg width="25" height="24" viewBox="0 0 25 24" fill="none" xmlns="http://www.w3.org/2000/svg">
<path fill-rule="evenodd" clip-rule="evenodd" d="M4.92999 8.512C4.99412 8.43718 5.07236 8.37573 5.16025 8.33116C5.24814 8.28659 5.34395 8.25978 5.44221 8.25226C5.54046 8.24473 5.63924 8.25665 5.73289 8.28732C5.82654 8.31799 5.91322 8.36681 5.98799 8.431L12.5 14.012L19.012 8.431C19.0861 8.3631 19.1732 8.3108 19.268 8.27721C19.3627 8.24362 19.4633 8.22943 19.5636 8.23548C19.664 8.24153 19.7621 8.2677 19.8522 8.31243C19.9422 8.35716 20.0224 8.41954 20.0878 8.49586C20.1533 8.57219 20.2027 8.66089 20.2332 8.7567C20.2637 8.85251 20.2746 8.95347 20.2653 9.05358C20.256 9.1537 20.2266 9.25091 20.179 9.33946C20.1314 9.428 20.0664 9.50606 19.988 9.569L12.988 15.569C12.8521 15.6855 12.679 15.7495 12.5 15.7495C12.321 15.7495 12.1479 15.6855 12.012 15.569L5.01199 9.569C4.86118 9.43952 4.76793 9.25546 4.75274 9.05727C4.73756 8.85907 4.80167 8.66296 4.93099 8.512" fill="#424242"/>
</svg>
