<svg width="20" height="20" viewBox="0 0 20 20" fill="none" xmlns="http://www.w3.org/2000/svg">
<path d="M7.1534 3.40823C8.42043 1.13647 9.05335 0 10.0004 0C10.9474 0 11.5803 1.13647 12.8474 3.40823L13.1744 3.99646C13.5344 4.64234 13.7156 4.9647 13.9956 5.17764C14.2756 5.39058 14.625 5.4694 15.325 5.62823L15.9602 5.77175C18.4202 6.32822 19.6507 6.60705 19.9425 7.54822C20.2354 8.4894 19.3966 9.46939 17.719 11.4306L17.2861 11.9364C16.8096 12.4941 16.572 12.7729 16.4637 13.1176C16.3579 13.4623 16.3932 13.8341 16.4649 14.5764L16.5308 15.2541C16.7849 17.8706 16.9108 19.1788 16.1449 19.76C15.3791 20.3411 14.2273 19.8117 11.925 18.7517L11.3286 18.4764C10.6745 18.1753 10.3474 18.0247 10.0004 18.0247C9.65334 18.0247 9.32629 18.1753 8.67101 18.4764L8.07573 18.7517C5.77344 19.8106 4.6217 20.3423 3.85584 19.76C3.08998 19.1788 3.21703 17.8706 3.46997 15.2541L3.53585 14.5776C3.60761 13.8341 3.64408 13.4623 3.53585 13.1188C3.42997 12.7729 3.19115 12.4953 2.71469 11.9376L2.28059 11.4294C0.60416 9.46939 -0.234642 8.48822 0.0571147 7.54704C0.351225 6.60587 1.5806 6.32822 4.04054 5.77175L4.67582 5.62823C5.3758 5.4694 5.7252 5.39058 6.0052 5.17764C6.28637 4.96587 6.46636 4.64234 6.82635 3.99646L7.1534 3.40823Z" fill="#35B8EC"/>
</svg>
